<svg width="24" height="24" viewBox="0 0 24 24" fill="none" xmlns="http://www.w3.org/2000/svg">
<path fill-rule="evenodd" clip-rule="evenodd" d="M6.2438 15.6726C6.2438 14.6726 6.2433 14.6726 6.2433 14.6726L6.24158 14.6726L6.23882 14.6727L6.23173 14.6727L6.21136 14.6729C6.19511 14.6732 6.17354 14.6737 6.14719 14.6746C6.09459 14.6764 6.02242 14.6799 5.93509 14.6866C5.76179 14.7 5.52168 14.7265 5.25219 14.7804C4.75155 14.8806 3.98147 15.1065 3.41538 15.6726C2.99708 16.0909 2.85147 16.7077 2.78254 17.1213C2.7033 17.5968 2.68054 18.1227 2.68054 18.5895C2.68054 19.0625 2.7041 19.5074 2.72728 19.8318C2.73892 19.9949 2.75061 20.1294 2.75949 20.2241C2.76393 20.2715 2.76768 20.309 2.77039 20.3353L2.77363 20.3662L2.77458 20.375L2.77502 20.379C2.77502 20.379 2.77505 20.3793 3.76893 20.2688L2.77502 20.379C2.82667 20.8438 3.19365 21.2111 3.6585 21.2627L3.76893 20.2688C3.6585 21.2627 3.6585 21.2627 3.6585 21.2627L3.66003 21.2629L3.66273 21.2632L3.67155 21.2641L3.70244 21.2674C3.72875 21.2701 3.7663 21.2738 3.8137 21.2783C3.90841 21.2872 4.0429 21.2988 4.20592 21.3105C4.53035 21.3337 4.97527 21.3572 5.44831 21.3572C5.91508 21.3572 6.441 21.3345 6.91644 21.2552C7.33002 21.1863 7.94683 21.0407 8.36512 20.6224C8.93122 20.0563 9.15719 19.2862 9.25732 18.7856C9.31121 18.5161 9.3378 18.276 9.35113 18.1027C9.35785 18.0153 9.36133 17.9432 9.36315 17.8906C9.36406 17.8642 9.36455 17.8427 9.36482 17.8264L9.36507 17.806L9.36511 17.7989L9.36512 17.7962L9.36512 17.795C9.36512 17.795 7.69573 17.794 9.36512 17.794C9.36512 17.2417 8.91741 16.794 8.36512 16.794C7.813 16.794 7.36538 17.2414 7.36512 17.7935L7.36513 17.7923L7.36513 17.791L7.36512 17.7935C7.36505 17.7983 7.36481 17.8079 7.36434 17.8216C7.36339 17.8491 7.36135 17.893 7.35702 17.9493C7.34825 18.0632 7.33065 18.2209 7.29615 18.3933C7.22374 18.7554 7.10587 19.0348 6.97417 19.1834C6.9628 19.1851 6.86166 19.2368 6.58764 19.2824C6.26758 19.3358 5.86542 19.3572 5.44831 19.3572C5.18508 19.3572 4.92845 19.3488 4.70062 19.3371C4.68901 19.1093 4.68054 18.8527 4.68054 18.5895C4.68054 18.1723 4.70198 17.7702 4.75532 17.4501C4.80099 17.1761 4.85269 17.075 4.85434 17.0636C5.00301 16.9319 5.28237 16.814 5.64442 16.7416C5.81688 16.7071 5.97452 16.6895 6.08848 16.6807C6.14478 16.6764 6.18861 16.6744 6.21612 16.6734C6.22982 16.673 6.23933 16.6728 6.24414 16.6727M6.24726 16.6726C6.79796 16.6708 7.2438 16.2238 7.2438 15.6726C7.2438 15.1204 6.79558 14.6726 6.2433 14.6726L6.2438 15.6726" fill="#C75652"/>
<path fill-rule="evenodd" clip-rule="evenodd" d="M19.7782 3.36342C20.2517 3.41081 20.6263 3.78538 20.6736 4.25894C21.0531 8.05356 19.9163 11.3159 18.1224 13.5951C17.6888 14.146 17.2106 14.646 16.7005 15.0836C17.3319 16.2133 17.4757 17.5384 16.9448 18.7771C16.2287 20.4482 14.426 21.6422 11.7476 22.0247C11.4606 22.0657 11.1699 21.9801 10.951 21.7902C10.732 21.6002 10.6062 21.3246 10.6062 21.0347C10.6063 19.0306 10.9094 17.8825 11.1001 17.16L11.1004 17.1588C11.1203 17.0837 11.1389 17.0131 11.1558 16.9467C11.0391 16.8969 10.9319 16.825 10.8408 16.7338L7.30471 13.1978C7.20561 13.0986 7.12919 12.9806 7.0793 12.8518C7.00836 12.8698 6.93267 12.8897 6.85162 12.9111C6.12912 13.1019 4.98077 13.405 2.97664 13.4051C2.69242 13.4052 2.42162 13.2842 2.23192 13.0726C2.04222 12.861 1.95154 12.5786 1.98253 12.2961C2.28322 9.5554 3.42494 7.68377 5.12355 6.95582C6.41127 6.40396 7.79356 6.6065 8.9719 7.31637C9.40512 6.81399 9.89881 6.34281 10.4421 5.91504C12.721 4.12066 15.9832 2.98363 19.7782 3.36342ZM15.0412 16.2227C14.4459 16.5378 13.8294 16.77 13.2069 16.9058C13.1816 17.0827 13.1429 17.2452 13.107 17.3887C13.0855 17.4746 13.062 17.5639 13.0371 17.6581C12.9043 18.1613 12.7353 18.8019 12.6541 19.7922C14.1099 19.364 14.8291 18.6366 15.1065 17.9893C15.3366 17.4524 15.3264 16.8268 15.0412 16.2227ZM16.5508 12.3581C16.1467 12.8715 15.7132 13.3119 15.2661 13.6788C15.262 13.6783 15.2579 13.6778 15.2538 13.6774C14.1636 14.5701 12.9932 15.0261 11.9731 15.0377L8.98814 12.0528C9.0043 10.612 9.90621 8.87128 11.673 7.48009C13.3856 6.13162 15.8266 5.1935 18.7334 5.29097C18.7335 5.29301 18.7335 5.29504 18.7336 5.29707C18.7356 5.29714 18.7377 5.2972 18.7397 5.29727C18.837 8.20396 17.899 10.6452 16.5508 12.3581ZM7.1395 10.7998C7.27858 10.1766 7.51409 9.55975 7.83251 8.96435C7.14778 8.58748 6.46238 8.55798 5.91137 8.79412C5.27556 9.0666 4.55282 9.80718 4.16998 11.3612C5.18827 11.2816 5.84168 11.1092 6.35324 10.9742C6.44736 10.9494 6.53673 10.9258 6.62264 10.9043C6.77527 10.8662 6.94941 10.8248 7.1395 10.7998Z" fill="#C75652"/>
<path d="M15.1406 11.8416C14.3596 12.6226 13.0933 12.6226 12.3122 11.8416C11.5312 11.0605 11.5312 9.79418 12.3122 9.01313C13.0933 8.23208 14.3596 8.23208 15.1406 9.01313C15.9217 9.79418 15.9217 11.0605 15.1406 11.8416Z" fill="#C75652"/>
</svg>
