<svg width="14" height="14" viewBox="0 0 14 14" fill="none" xmlns="http://www.w3.org/2000/svg">
<path d="M13.3632 13.364C13.7537 12.9734 13.7537 12.3403 13.3632 11.9497L8.41416 7.00068L13.3646 2.05025C13.7551 1.65973 13.7551 1.02656 13.3646 0.636036C12.9741 0.245511 12.3409 0.245511 11.9504 0.636035L6.99994 5.58646L2.04951 0.636033C1.65899 0.245509 1.02582 0.245509 0.6353 0.636033C0.244776 1.02656 0.244776 1.65972 0.6353 2.05025L5.58573 7.00067L0.636658 11.9497C0.246134 12.3403 0.246135 12.9734 0.636659 13.364C1.02718 13.7545 1.66035 13.7545 2.05087 13.364L6.99994 8.41489L11.949 13.364C12.3395 13.7545 12.9727 13.7545 13.3632 13.364Z" fill="#040921"/>
</svg>
