<svg width="24" height="24" viewBox="0 0 24 24" fill="none" xmlns="http://www.w3.org/2000/svg">
<path fill-rule="evenodd" clip-rule="evenodd" d="M4.47657 15.2102C5.79088 13.378 8.11857 12 11.9999 12C15.8812 12 18.2089 13.378 19.5232 15.2102C20.7935 16.9809 20.9958 19.0105 20.9998 20.1336C21.0039 21.2629 20.0571 22 19.0864 22H4.91334C3.94266 22 2.99589 21.2629 2.99995 20.1336C3.00399 19.0105 3.20631 16.9809 4.47657 15.2102ZM5.00172 20H18.9981C18.9774 19.0479 18.7726 17.595 17.8981 16.376C17.0234 15.1565 15.3548 14 11.9999 14C8.64498 14 6.97642 15.1565 6.10167 16.376C5.22718 17.595 5.02237 19.0479 5.00172 20Z" fill="#F2F2F2"/>
<path fill-rule="evenodd" clip-rule="evenodd" d="M12 8C13.1046 8 14 7.10457 14 6C14 4.89543 13.1046 4 12 4C10.8954 4 9.99999 4.89543 9.99999 6C9.99999 7.10457 10.8954 8 12 8ZM12 10C14.2091 10 16 8.20914 16 6C16 3.79086 14.2091 2 12 2C9.79085 2 7.99999 3.79086 7.99999 6C7.99999 8.20914 9.79085 10 12 10Z" fill="#F2F2F2"/>
</svg>
